<svg data-v-423bf9ae="" xmlns="http://www.w3.org/2000/svg" viewBox="0 0 421 90" class="iconLeft"><!----><!----><!----><g data-v-423bf9ae="" id="69428db0-aa71-4ed8-9c2f-b684a79fe33e" fill="black" transform="matrix(6.369426055169142,0,0,6.369426055169142,100.7006320665885,-35.12738375576966)"><path d="M2.37 14.03L2.37 17.18L1.46 17.18L1.46 8.43L4.69 8.43L4.69 8.43Q5.53 8.43 5.99 8.69L5.99 8.69L5.99 8.69Q6.44 8.95 6.63 9.55L6.63 9.55L6.63 9.55Q6.82 10.16 6.82 11.28L6.82 11.28L6.82 11.28Q6.82 12.31 6.64 12.90L6.64 12.90L6.64 12.90Q6.45 13.50 6.03 13.76L6.03 13.76L6.03 13.76Q5.61 14.03 4.90 14.03L4.90 14.03L2.37 14.03ZM2.37 13.24L4.76 13.24L4.76 13.24Q5.39 13.24 5.63 13.12L5.63 13.12L5.63 13.12Q5.87 12.99 5.87 12.66L5.87 12.66L5.87 9.77L5.87 9.77Q5.87 9.44 5.63 9.31L5.63 9.31L5.63 9.31Q5.39 9.18 4.76 9.18L4.76 9.18L2.37 9.18L2.37 13.24ZM9.39 16.48L9.39 16.48Q9.76 16.52 10.02 16.53L10.02 16.53L9.95 17.16L9.95 17.16Q9.56 17.29 9.25 17.29L9.25 17.29L9.25 17.29Q8.48 17.29 8.48 16.41L8.48 16.41L8.48 8.08L9.39 7.87L9.39 16.48ZM14.53 10.07L14.53 10.07Q15.44 10.07 15.95 10.23L15.95 10.23L15.95 10.23Q16.45 10.40 16.66 10.78L16.66 10.78L16.66 10.78Q16.87 11.16 16.87 11.84L16.87 11.84L16.87 17.18L16.49 17.18L16.23 16.48L16.23 16.48Q15.74 16.90 15.13 17.09L15.13 17.09L15.13 17.09Q14.52 17.29 13.68 17.29L13.68 17.29L13.68 17.29Q12.56 17.29 12.10 16.84L12.10 16.84L12.10 16.84Q11.65 16.39 11.65 15.29L11.65 15.29L11.65 15.29Q11.65 14.21 11.90 13.78L11.90 13.78L11.90 13.78Q12.15 13.36 12.96 13.22L12.96 13.22L12.96 13.22Q13.78 13.09 15.83 13.09L15.83 13.09L15.97 13.09L15.97 11.03L15.97 11.03Q15.33 10.84 14.31 10.84L14.31 10.84L14.31 10.84Q13.22 10.84 12.08 11.17L12.08 11.17L11.96 10.46L11.96 10.46Q12.36 10.29 13.11 10.18L13.11 10.18L13.11 10.18Q13.86 10.07 14.53 10.07L14.53 10.07ZM14.80 16.51L14.80 16.51Q15.48 16.51 15.73 16.32L15.73 16.32L15.73 16.32Q15.97 16.13 15.97 15.60L15.97 15.60L15.97 13.83L13.66 13.83L13.66 13.83Q12.96 13.83 12.71 14.02L12.71 14.02L12.71 14.02Q12.46 14.21 12.46 14.73L12.46 14.73L12.46 16.51L14.80 16.51ZM19.73 17.18L19.73 10.18L20.10 10.18L20.37 10.88L20.37 10.88Q20.87 10.46 21.47 10.26L21.47 10.26L21.47 10.26Q22.06 10.07 22.90 10.07L22.90 10.07L22.90 10.07Q24.85 10.07 24.85 11.10L24.85 11.10L24.85 17.18L23.94 17.18L23.94 10.81L22.05 10.81L22.05 10.81Q21.48 10.81 21.18 10.89L21.18 10.89L21.18 10.89Q20.89 10.98 20.76 11.17L20.76 11.17L20.76 11.17Q20.64 11.37 20.64 11.76L20.64 11.76L20.64 17.18L19.73 17.18ZM29.82 16.52L29.82 16.52Q30.38 16.52 30.91 16.45L30.91 16.45L30.91 16.45Q31.44 16.38 32.23 16.18L32.23 16.18L32.35 16.90L32.35 16.90Q31.91 17.08 31.15 17.19L31.15 17.19L31.15 17.19Q30.39 17.29 29.58 17.29L29.58 17.29L29.58 17.29Q28.55 17.29 28.06 17.00L28.06 17.00L28.06 17.00Q27.57 16.72 27.39 15.97L27.39 15.97L27.39 15.97Q27.22 15.23 27.22 13.68L27.22 13.68L27.22 13.68Q27.22 12.21 27.44 11.45L27.44 11.45L27.44 11.45Q27.66 10.70 28.23 10.38L28.23 10.38L28.23 10.38Q28.80 10.07 29.90 10.07L29.90 10.07L29.90 10.07Q30.98 10.07 31.54 10.23L31.54 10.23L31.54 10.23Q32.09 10.40 32.31 10.82L32.31 10.82L32.31 10.82Q32.54 11.24 32.54 12.07L32.54 12.07L32.54 12.07Q32.54 13.15 32.27 13.57L32.27 13.57L32.27 13.57Q32.00 14 31.16 14.13L31.16 14.13L31.16 14.13Q30.31 14.27 28.15 14.27L28.15 14.27L28.15 16.32L28.15 16.32Q28.80 16.52 29.82 16.52L29.82 16.52ZM29.37 10.91L29.37 10.91Q28.66 10.91 28.41 11.10L28.41 11.10L28.41 11.10Q28.15 11.28 28.15 11.82L28.15 11.82L28.15 13.52L30.46 13.52L30.46 13.52Q31.19 13.52 31.45 13.34L31.45 13.34L31.45 13.34Q31.71 13.16 31.71 12.63L31.71 12.63L31.71 10.91L29.37 10.91ZM37.84 10.85L36.50 10.85L36.50 16.48L36.50 16.48Q37.38 16.53 37.55 16.53L37.55 16.53L37.48 17.16L37.48 17.16Q36.78 17.29 36.36 17.29L36.36 17.29L36.36 17.29Q35.59 17.29 35.59 16.41L35.59 16.41L35.59 10.85L34.51 10.85L34.51 10.18L35.59 10.18L35.59 8.55L36.50 8.32L36.50 10.18L37.84 10.18L37.84 10.85ZM39.09 13.34L39.09 13.34Q39.09 13.05 39.21 12.98L39.21 12.98L39.21 12.98Q39.33 12.91 39.72 12.91L39.72 12.91L42.98 12.91L42.98 13.31L42.98 13.31Q42.98 13.61 42.86 13.68L42.86 13.68L42.86 13.68Q42.74 13.75 42.36 13.75L42.36 13.75L39.09 13.75L39.09 13.34ZM50.25 17.18L49.22 17.18L46.89 13.43L44.65 17.18L43.65 17.18L46.41 12.66L43.76 8.43L44.79 8.43L47.01 12.00L49.14 8.43L50.13 8.43L47.50 12.78L50.25 17.18Z"></path></g><!----><g data-v-423bf9ae="" id="b2b5c251-90df-415e-adfe-b991565a053b" transform="matrix(2.8125,0,0,2.8125,0,0)" stroke="none" fill="black"><path d="M16 1c8.271 0 15 6.729 15 15s-6.729 15-15 15S1 24.271 1 16 7.729 1 16 1m0-1C7.163 0 0 7.163 0 16s7.163 16 16 16 16-7.163 16-16S24.837 0 16 0z"></path><path d="M16 7.045L24.955 16 16 24.955 7.045 16 16 7.045m0-1.414L5.631 16 16 26.369 26.369 16 16 5.631z"></path><path d="M16 12.538L19.462 16 16 19.462 12.538 16 16 12.538m0-1.414L11.124 16 16 20.876 20.876 16 16 11.124z"></path></g><!----></svg>