<svg data-v-fde0c5aa="" xmlns="http://www.w3.org/2000/svg" viewBox="0 0 300 300" class="icon"><!----><defs data-v-fde0c5aa=""><!----></defs><rect data-v-fde0c5aa="" fill="transparent" x="0" y="0" width="300px" height="300px" class="logo-background-square"></rect><!----><defs data-v-fde0c5aa=""><linearGradient data-v-fde0c5aa="" gradientTransform="rotate(25)" id="17825722-270e-4a39-a142-27815de34494" x1="0%" y1="0%" x2="100%" y2="0%"><stop data-v-fde0c5aa="" offset="0%" stop-color="#87544E" stop-opacity="1"></stop><stop data-v-fde0c5aa="" offset="100%" stop-color="#87544E" stop-opacity="1"></stop></linearGradient></defs><g data-v-fde0c5aa="" id="13804287-ad21-4c73-be71-92a77bd9c7ac" fill="url(#17825722-270e-4a39-a142-27815de34494)" stroke="none" transform="matrix(6.875,0,0,6.875,40,40)"><path d="M16 1c8.271 0 15 6.729 15 15s-6.729 15-15 15S1 24.271 1 16 7.729 1 16 1m0-1C7.163 0 0 7.163 0 16s7.163 16 16 16 16-7.163 16-16S24.837 0 16 0z"></path><path d="M16 7.045L24.955 16 16 24.955 7.045 16 16 7.045m0-1.414L5.631 16 16 26.369 26.369 16 16 5.631z"></path><path d="M16 12.538L19.462 16 16 19.462 12.538 16 16 12.538m0-1.414L11.124 16 16 20.876 20.876 16 16 11.124z"></path></g><!----></svg>